<?xml version="1.0" encoding="utf-8"?>
<!-- Svg Vector Icons : http://www.onlinewebfonts.com/icon -->
<!DOCTYPE svg PUBLIC "-//W3C//DTD SVG 1.1//EN" "http://www.w3.org/Graphics/SVG/1.1/DTD/svg11.dtd">
<svg version="1.1" xmlns="http://www.w3.org/2000/svg" xmlns:xlink="http://www.w3.org/1999/xlink" x="0px" y="0px" viewBox="0 0 1000 1000" enable-background="new 0 0 1000 1000" xml:space="preserve" style="background-color: #898989" >
<metadata> Svg Vector Icons : http://www.onlinewebfonts.com/icon </metadata>
<g><path fill="#ffffff" d="M488.4,475.6c128,0,232.8-104.7,232.8-232.8c0-128-104.7-232.8-232.8-232.8c-128,0-232.8,104.7-232.8,232.8C255.6,370.8,360.3,475.6,488.4,475.6z M935.3,845.7l-9.3-25.6c-65.2-176.9-235.1-298-426-298c-190.9,0-360.8,121-426,298l-9.3,25.6L88,862c121,81.5,263,128,412,128c149,0,293.3-44.2,412-128L935.3,845.7z"/></g>
</svg>
